<?xml version="1.0" encoding="utf-8"?>
<!-- Generator: Adobe Illustrator 16.0.0, SVG Export Plug-In . SVG Version: 6.00 Build 0)  -->
<!DOCTYPE svg PUBLIC "-//W3C//DTD SVG 1.1//EN" "http://www.w3.org/Graphics/SVG/1.1/DTD/svg11.dtd">
<svg version="1.1" id="Layer_1" xmlns="http://www.w3.org/2000/svg" xmlns:xlink="http://www.w3.org/1999/xlink" x="0px" y="0px"
	 width="600px" height="400px" viewBox="0 0 600 400" enable-background="new 0 0 600 400" xml:space="preserve">
<polygon fill="none" points="599.84,400 0,399.303 0.16,0 600,0.697 "/>
<ellipse fill="#FFFFFF" cx="299.889" cy="199.548" rx="115.375" ry="115.39"/>
<g>
	<g>
		<path fill="#DCDCDC" d="M313.319,106.384c0.727-0.071,1.31-0.261,1.718-1.006c2.855-5.202,6.674-9.706,10.453-14.234
			c7.26-7.382,15.127-13.998,24.092-19.252c4.878-2.858,9.996-5.196,15.244-7.271c4.146,3.207,7.867,6.877,11.516,10.625
			c0.407,0.417,0.801,0.85,0.897,1.462c0.064,0.781-0.42,1.337-0.794,1.939c-3.263,5.254-7.194,10.004-11.108,14.768
			c-0.352,0.427-0.647,1.024-1.39,0.854c-0.738-0.48-0.764-1.317-1.004-2.038c-2.228-6.645-8.952-10.725-15.511-9.399
			c-7.053,1.425-11.865,7.476-11.25,14.597c0.495,5.73,3.679,9.669,9.019,11.849c0.812,0.332,1.813,0.386,2.225,1.38
			c-0.121,0.793-0.768,1.186-1.31,1.618c-6.271,4.986-12.955,9.288-20.459,12.199c-3.101,1.202-6.278,2.009-9.665,1.84
			c-3.861-0.193-6.02-2.398-6.255-6.265c-0.163-2.666,0.712-5.106,1.214-7.63c0.154-1.256,0.818-2.292,1.452-3.347
			C312.9,108.245,313.467,107.434,313.319,106.384z"/>
		<g>
			<path d="M313.373,106.577c1.739-0.25,2.148-1.69,2.989-3.078c1.368-2.261,2.943-4.394,4.568-6.476
				c2.934-3.76,6.061-7.2,9.545-10.454c7.059-6.59,14.866-12.375,23.443-16.833c2.142-1.113,4.334-2.126,6.543-3.093
				c1.275-0.558,2.563-1.086,3.854-1.604c0.997-0.401,2.836,1.724,3.513,2.306c1.761,1.514,3.443,3.117,5.1,4.743
				c0.829,0.814,1.646,1.641,2.459,2.469c0.373,0.38,0.745,0.761,1.109,1.15c1.141,1.218,0.037,2.421-0.543,3.347
				c-2.738,4.367-5.986,8.394-9.246,12.376c-0.647,0.792-1.289,1.59-1.941,2.379c-0.997,1.206-1.798-2.102-1.953-2.501
				c-0.614-1.578-1.563-2.997-2.673-4.266c-4.615-5.288-12.316-5.93-18.078-2.214c-5.735,3.698-7.51,11.147-4.933,17.291
				c1.219,2.909,3.583,5.083,6.313,6.563c0.658,0.358,1.354,0.664,2.061,0.917c0.61,0.22,2.491,0.597,1.13,2.007
				c-0.312,0.324-0.747,0.595-1.099,0.874c-2.023,1.602-4.112,3.118-6.252,4.561c-3.979,2.681-8.206,4.988-12.641,6.825
				c-4.037,1.673-9.774,3.615-13.939,1.366c-3.367-1.818-2.976-6.415-2.3-9.536c0.407-1.89,0.703-3.912,1.634-5.618
				c0.674-1.232,1.532-2.229,1.479-3.693c-0.009-0.258-0.408-0.259-0.399,0c0.075,2.138-1.975,3.868-2.36,5.981
				c-0.403,2.199-1.091,4.309-1.23,6.554c-0.181,2.878,0.908,5.725,3.62,6.981c3.438,1.592,8.104,0.328,11.466-0.826
				c4.23-1.453,8.261-3.575,12.073-5.893c1.896-1.153,3.732-2.404,5.535-3.699c1.666-1.197,3.561-2.416,4.988-3.896
				c0.759-0.786,0.276-1.465-0.476-1.959c-0.644-0.421-1.585-0.58-2.279-0.893c-0.938-0.421-1.816-0.952-2.659-1.534
				c-6.914-4.785-7.095-15.167-1.159-20.755c6.462-6.084,16.657-4.055,21.015,3.372c0.52,0.885,0.921,1.85,1.207,2.834
				c0.136,0.47,0.232,1.149,0.634,1.491c1.034,0.882,1.716-0.256,2.366-1.047c3.04-3.7,6.064-7.412,8.796-11.35
				c0.682-0.981,1.33-1.985,1.965-2.998c0.29-0.462,0.771-1.016,0.8-1.596c0.084-1.729-1.881-3.02-2.971-4.119
				c-1.638-1.648-3.31-3.259-5.029-4.819c-0.86-0.78-1.742-1.536-2.634-2.28c-0.395-0.328-1.442-1.513-1.959-1.513
				c-0.817,0-2.091,0.829-2.852,1.145c-0.943,0.393-1.883,0.802-2.816,1.217c-2.392,1.06-4.736,2.217-7.041,3.452
				c-4.197,2.251-8.188,4.883-12.003,7.727c-5.121,3.815-9.87,8.112-14.367,12.639c-2.131,2.144-3.983,4.688-5.829,7.081
				c-1.044,1.354-2.036,2.747-2.982,4.17c-0.924,1.389-1.852,4.078-3.669,4.34C313.011,106.228,313.12,106.614,313.373,106.577z"/>
		</g>
	</g>
	<g>
		<path fill="#A9A9A9" d="M311.432,112.074c-0.168,2.691-1.412,5.181-1.205,7.986c0.263,3.529,2.2,5.569,5.7,5.747
			c5.468,0.277,10.271-1.851,14.929-4.182c5.941-2.975,11.479-6.648,16.458-11.104c0.781-0.648,1.727-0.435,2.612-0.462
			c7.687-0.242,13.393-5.958,13.626-13.656c0.022-0.761-0.121-1.575,0.513-2.199c4.381-5.299,8.776-10.585,12.396-16.458
			c0.196-0.319,0.314-0.687,0.467-1.032c1.377-0.12,1.566,1.27,2.358,1.892c0.946,0.744,1.66,1.742,2.296,2.775
			c-3.747,9.908-8.917,19.002-15.572,27.249c-7.056,8.963-15.252,16.668-25.025,22.619c-0.665,0.405-1.148,0.802-1.153,1.614
			c-0.767-0.167-1.382,0.203-1.999,0.562c-6.639,3.87-13.714,6.731-21.011,9.077c-1.172,0.377-2.312,0.841-3.485,1.21
			c-0.216-0.135-0.431-0.27-0.646-0.404c-3.062-3.473-6.328-6.738-9.799-9.8c-0.137-0.213-0.271-0.427-0.406-0.641
			c2.171-6.449,4.229-12.942,7.37-19.013C310.218,113.15,310.374,112.192,311.432,112.074z"/>
		<g>
			<path d="M311.231,112.074c-0.333,3.772-2.225,7.431-0.361,11.106c1.482,2.927,5.1,2.994,7.925,2.758
				c4.309-0.358,8.345-2.239,12.161-4.14c4.241-2.113,8.272-4.623,12.058-7.475c0.772-0.582,1.525-1.188,2.273-1.798
				c1.13-0.924,2.194-2.242,3.741-2.278c1.812-0.042,3.478-0.192,5.218-0.743c2.922-0.924,5.394-2.898,7.119-5.402
				c0.873-1.266,1.463-2.71,1.879-4.183c0.201-0.713,0.313-1.446,0.41-2.179c0.227-1.731,0.033-2.77,1.302-4.303
				c3.013-3.645,6.002-7.311,8.744-11.167c0.684-0.96,1.34-1.939,1.983-2.926c0.344-0.525,1.225-2.972,2.297-2.054
				c0.463,0.397,0.709,1.033,1.161,1.458c1.063,0.997,2.452,2.053,1.839,3.639c-1.758,4.53-3.874,8.916-6.271,13.141
				c-4.609,8.129-10.479,15.617-17.05,22.25c-3.259,3.29-6.776,6.318-10.493,9.076c-1.736,1.289-3.532,2.496-5.361,3.65
				c-0.687,0.433-1.388,0.778-1.902,1.415c-0.448,0.553-0.368,0.646-1.185,0.834c-0.862,0.2-1.765,0.946-2.531,1.375
				c-1.026,0.575-2.072,1.117-3.122,1.649c-2.431,1.23-4.926,2.328-7.446,3.352c-2.179,0.884-4.392,1.684-6.616,2.443
				c-1.132,0.386-2.272,0.741-3.401,1.138c-0.579,0.204-1.155,0.417-1.736,0.619c-1.002,0.349-1.682-0.888-2.243-1.509
				c-1.889-2.084-3.874-4.08-5.916-6.013c-0.765-0.724-3.228-2.292-2.838-3.453c0.446-1.328,0.89-2.657,1.339-3.984
				c0.896-2.653,1.834-5.291,2.866-7.895c0.584-1.472,1.22-2.922,1.889-4.358c0.486-1.045,1.228-3.529,2.524-3.849
				c0.25-0.062,0.144-0.448-0.106-0.386c-0.748,0.185-1.079,0.544-1.411,1.233c-0.624,1.293-1.26,2.584-1.854,3.892
				c-1.25,2.746-2.308,5.577-3.314,8.419c-0.534,1.509-1.044,3.027-1.554,4.544c-0.164,0.489-1.199,2.582-0.934,3
				c0.685,1.083,1.733,1.839,2.672,2.707c1.179,1.092,2.324,2.219,3.455,3.362c1.13,1.143,2.226,2.32,3.306,3.511
				c0.221,0.244,1.13,1.525,1.643,1.356c3.029-0.993,6.059-2.029,9.052-3.125c2.772-1.015,5.502-2.149,8.186-3.382
				c1.423-0.655,2.825-1.358,4.213-2.084c1.423-0.745,3.324-2.353,4.993-2.252c0.119,0.007,0.187-0.098,0.2-0.2
				c0.203-1.548,3.053-2.688,4.254-3.489c1.346-0.897,2.656-1.846,3.949-2.817c2.584-1.943,5.043-4.049,7.405-6.255
				c4.781-4.466,9.056-9.467,12.969-14.703c4.147-5.55,7.648-11.567,10.541-17.859c0.636-1.383,1.229-2.785,1.802-4.194
				c0.284-0.699,0.556-1.404,0.824-2.11c0.104-0.271-0.461-0.838-0.589-1.026c-0.722-1.075-1.787-1.809-2.504-2.873
				c-0.454-0.674-0.94-1.006-1.756-1.021c-0.097-0.002-0.158,0.064-0.191,0.147c-0.874,2.112-2.401,4.034-3.722,5.888
				c-1.469,2.065-3.028,4.064-4.61,6.043c-1.473,1.841-2.979,3.654-4.479,5.47c-0.96,1.161-0.561,3.078-0.787,4.491
				c-0.583,3.648-2.705,6.875-5.725,8.964c-1.475,1.02-3.173,1.656-4.913,2.042c-0.988,0.219-2.008,0.301-3.019,0.299
				c-0.57-0.001-1.351-0.094-1.863,0.233c-1.706,1.089-3.19,2.651-4.805,3.887c-1.804,1.382-3.688,2.657-5.61,3.866
				c-3.933,2.472-8.147,4.693-12.508,6.3c-3.592,1.323-9.53,2.902-12.688-0.096c-3.27-3.104-0.698-8.286-0.372-11.975
				C311.655,111.816,311.254,111.819,311.231,112.074z"/>
		</g>
	</g>
	<g>
		<path fill="#C62A2C" d="M381.58,81.381c-1.497-0.613-2.071-2.165-3.202-3.155c-0.522-0.458-0.971-1.005-1.452-1.513
			c-3.372-3.843-7.122-7.297-10.967-10.655c-0.457-0.398-1.199-0.611-1.132-1.437c5.633-1.979,11.338-3.606,17.39-3.517
			c2.33,0.034,2.748,0.522,2.819,2.89C385.216,70.06,383.555,75.749,381.58,81.381z"/>
		<g>
			<path d="M381.682,81.208c-0.913-0.447-1.468-1.107-2.078-1.893c-0.66-0.853-1.453-1.56-2.18-2.357
				c-1.837-2.019-3.695-4-5.663-5.896c-1.822-1.757-3.682-3.644-5.701-5.177c-0.139-0.105-1.474-0.968-0.615-1.267
				c0.751-0.262,1.505-0.511,2.261-0.757c1.317-0.429,2.648-0.812,3.987-1.165c2.854-0.751,5.771-1.224,8.72-1.368
				c1.125-0.055,2.536-0.203,3.602,0.254c0.989,0.424,0.818,2.165,0.835,3.018c0.112,5.746-1.59,11.359-3.461,16.728
				c-0.085,0.245,0.303,0.349,0.388,0.106c1.367-3.925,2.574-7.895,3.16-12.021c0.257-1.796,0.338-3.607,0.302-5.419
				c-0.018-0.858-0.064-1.771-0.62-2.462c-0.439-0.545-1.357-0.575-1.984-0.617c-1.922-0.128-3.928,0.062-5.828,0.342
				c-4.125,0.606-8.102,1.799-12.028,3.171c-0.08,0.028-0.154,0.101-0.147,0.193c0.103,1.272,1.651,1.98,2.519,2.745
				c1.91,1.688,3.78,3.421,5.598,5.21c1.774,1.749,3.397,3.63,5.115,5.433c1.138,1.194,2.108,2.804,3.623,3.544
				C381.71,81.667,381.913,81.322,381.682,81.208z"/>
		</g>
	</g>
	<g>
		<path fill="#C62A2C" d="M311.432,112.074c-3.396,6.023-5.679,12.501-7.793,19.051c-0.209,0.65-0.055,1.644-1.154,1.744
			c-2.881-0.986-5.85-1.073-8.845-0.84c-1.934,0.15-3.356,1.285-4.693,2.539c-6.124,5.738-11.697,11.978-16.885,18.567
			c-0.275,0.351-0.571,0.684-0.988,0.958c0.609-2.883,1.82-5.544,3.023-8.178c4.969-10.881,10.863-21.218,18.462-30.513
			c1.686-2.061,3.576-3.933,5.46-5.816c3.63-3.627,8.055-4.103,12.8-3.556c0.836,0.096,1.667,0.236,2.501,0.354
			c0.807,0.346,0.654,0.824,0.299,1.463C312.845,109.231,312.155,110.662,311.432,112.074z"/>
		<g>
			<path d="M311.259,111.973c-2.597,4.657-4.581,9.593-6.325,14.623c-0.451,1.299-0.881,2.606-1.307,3.914
				c-0.13,0.401-0.236,0.762-0.311,1.174c-0.221,1.246-1.75,0.688-2.52,0.503c-2.35-0.568-5.359-0.815-7.727-0.287
				c-2.116,0.472-3.59,1.88-5.118,3.33c-1.978,1.876-3.892,3.82-5.764,5.802c-1.872,1.979-3.682,4.017-5.454,6.085
				c-0.887,1.035-1.757,2.084-2.621,3.139c-0.991,1.21-1.894,2.703-3.141,3.663c0.098,0.076,0.196,0.151,0.294,0.227
				c1.328-5.875,4.474-11.5,7.243-16.811c2.794-5.359,5.923-10.543,9.401-15.487c1.736-2.468,3.566-4.882,5.525-7.177
				c1.975-2.313,4.192-4.835,6.704-6.567c2.392-1.648,5.33-2.097,8.171-2.058c0.837,0.011,5.935,0.114,5.136,1.699
				C312.731,109.161,311.979,110.56,311.259,111.973c-0.116,0.229,0.229,0.432,0.347,0.202c0.78-1.535,1.596-3.055,2.369-4.592
				c0.173-0.342,0.213-0.916-0.18-1.148c-1.066-0.636-2.758-0.594-3.988-0.708c-1.471-0.134-2.992-0.151-4.457,0.066
				c-6.52,0.967-10.896,6.806-14.709,11.699c-4.196,5.382-7.855,11.165-11.14,17.142c-1.731,3.152-3.334,6.373-4.861,9.628
				c-1.484,3.164-2.984,6.352-3.759,9.776c-0.034,0.152,0.143,0.343,0.294,0.227c1.852-1.425,3.217-3.737,4.712-5.527
				c1.871-2.241,3.806-4.427,5.788-6.57c1.851-2.001,3.763-3.945,5.718-5.844c1.02-0.99,2.034-2.001,3.168-2.862
				c1.465-1.113,3.098-1.264,4.872-1.329c1.568-0.058,3.131,0.058,4.675,0.321c0.938,0.16,1.893,0.734,2.829,0.514
				c0.396-0.093,0.578-0.532,0.699-0.861c0.442-1.193,0.711-2.511,1.115-3.729c1.856-5.574,3.988-11.062,6.854-16.202
				C311.73,111.949,311.385,111.747,311.259,111.973z"/>
		</g>
	</g>
	<g>
		<path fill="#C62A2C" d="M313.333,143.713c-0.012-0.946,0.828-0.902,1.367-1.063c8.113-2.437,15.888-5.665,23.286-9.801
			c0.54-0.301,1.246-1.196,1.842,0.014c0.16,1.281,0.321,2.562,0.478,3.846c0.639,5.255-1.354,9.401-5.115,12.996
			c-8.046,7.687-17.369,13.472-27.145,18.612c-4.866,2.559-9.852,4.864-15.035,6.723c-0.303,0.109-0.574,0.312-0.951,0.082
			c3.49-2.985,6.982-5.943,10.441-8.94c3.091-2.678,5.872-5.68,8.825-8.502c3.27-3.126,3.384-6.93,2.752-10.961
			C313.919,145.702,313.586,144.714,313.333,143.713z"/>
		<g>
			<path d="M313.526,143.766c0.149-0.997,2.197-1.219,2.92-1.445c1.125-0.353,2.242-0.729,3.355-1.113
				c2.408-0.832,4.783-1.756,7.133-2.742c2.003-0.841,3.978-1.751,5.931-2.705c1.059-0.517,2.104-1.059,3.146-1.609
				c0.495-0.261,3.47-2.47,3.686-0.741c0.562,4.518,0.853,8.474-1.622,12.521c-2.33,3.813-6.369,6.774-9.839,9.488
				c-7.516,5.879-15.936,10.671-24.493,14.849c-2.276,1.111-4.591,2.14-6.934,3.101c-1.09,0.447-2.192,0.866-3.297,1.274
				c0.349-0.128-1.176,0.502-0.834,0.21c0.634-0.542,1.269-1.083,1.903-1.625c3.874-3.304,7.831-6.534,11.487-10.082
				c1.675-1.626,3.305-3.298,4.979-4.924c1.258-1.221,2.238-2.47,2.891-4.111c1.322-3.335,0.466-7.138-0.41-10.454
				c-0.066-0.25-0.452-0.144-0.388,0.106c0.78,2.949,1.379,5.892,0.787,8.938c-0.679,3.496-3.687,5.73-6.067,8.107
				c-5.041,5.03-10.533,9.543-15.94,14.167c-0.12,0.102-0.046,0.294,0.088,0.334c0.619,0.188,0.998-0.06,1.612-0.282
				c1.108-0.401,2.205-0.833,3.297-1.274c2.199-0.887,4.359-1.865,6.5-2.885c4.288-2.045,8.473-4.327,12.568-6.732
				c4.012-2.355,7.896-4.92,11.609-7.723c3.428-2.587,6.991-5.384,9.717-8.725c2.212-2.71,3.347-6.001,3.309-9.489
				c-0.012-1.051-0.188-2.102-0.315-3.143c-0.069-0.57,0.012-1.824-0.301-2.298c-0.668-1.016-1.214-0.677-2.116-0.086
				c-4.17,2.731-9.164,4.686-13.776,6.513c-2.188,0.867-4.409,1.65-6.646,2.386c-1.023,0.337-2.058,0.7-3.104,0.951
				c-0.536,0.129-0.843,0.229-1.139,0.69c-0.062,0.138-0.09,0.286-0.08,0.444C313.102,143.913,313.487,144.021,313.526,143.766z"/>
		</g>
	</g>
	<g>
		<path fill="#A9A9A9" d="M308.337,146.375c-2.458,5.837-5.68,11.178-9.976,15.877c-4.367,4.776-9.463,8.439-15.539,10.687
			c-3.764,1.393-7.601,2.573-11.522,3.442c-0.774,0.172-2.005,0.628-1.582-1.087c1.868-7.565,3.873-15.082,8.711-21.432
			c5.311-6.97,12.171-11.935,20.152-15.428c0.416-0.182,0.823-0.384,1.234-0.577c1.375-0.383,1.799,0.44,1.99,1.563
			c-2.989,1.926-6.167,3.553-8.966,5.787c-4.664,3.721-8.28,8.235-10.42,13.824c-0.872,2.278-2.194,4.437-2.244,7.218
			c6.243-1.914,12.158-4.2,16.965-8.714c3.635-3.414,6.575-7.334,8.771-11.812c0.228-0.462,0.419-0.956,0.835-1.303
			C307.909,144.558,308.699,144.999,308.337,146.375z"/>
		<g>
			<path d="M308.164,146.275c-3.663,8.6-9.159,16.47-16.824,21.951c-3.821,2.732-8.111,4.452-12.55,5.901
				c-2.289,0.747-4.612,1.381-6.955,1.93c-0.363,0.085-0.727,0.166-1.09,0.25c-0.952,0.22-0.862-0.842-0.703-1.486
				c0.304-1.23,0.618-2.458,0.943-3.682c1.198-4.507,2.686-8.939,4.926-13.044c2.18-3.992,5.241-7.48,8.597-10.525
				c3.264-2.961,6.981-5.387,10.889-7.406c0.922-0.477,1.862-0.917,2.808-1.344c0.435-0.197,0.87-0.389,1.301-0.593
				c0.639-0.304,2.99,0.517,1.725,1.324c-2.052,1.309-4.182,2.491-6.214,3.831c-3.868,2.55-7.222,5.907-9.796,9.753
				c-1.319,1.969-2.304,4.103-3.174,6.299c-0.897,2.265-1.952,4.334-2.072,6.816c-0.006,0.128,0.133,0.23,0.253,0.193
				c5.676-1.752,11.223-3.903,15.863-7.71c2.392-1.962,4.467-4.347,6.309-6.822c0.979-1.315,1.85-2.708,2.66-4.133
				c0.363-0.639,0.695-1.295,1.024-1.954c0.108-0.235,0.224-0.467,0.346-0.695c0.715-1.378,1.832,0.559,1.714,1.193
				c-0.047,0.253,0.34,0.36,0.387,0.106c0.128-0.689,0.133-1.213-0.381-1.731c-0.262-0.264-1.179-0.642-1.505-0.451
				c-0.823,0.482-1.249,2.067-1.665,2.847c-0.858,1.608-1.857,3.138-2.926,4.613c-4.221,5.832-9.802,9.895-16.472,12.494
				c-1.463,0.57-2.956,1.064-4.452,1.54c-1.189,0.379-0.657-0.751-0.484-1.545c0.209-0.963,0.604-1.895,0.987-2.798
				c1.242-2.932,2.428-5.816,4.208-8.475c1.846-2.756,4.197-5.144,6.743-7.254c2.865-2.374,6.198-4.085,9.321-6.076
				c0.08-0.051,0.111-0.135,0.094-0.227c-0.703-3.479-4.422-0.733-6.342,0.217c-3.678,1.819-7.126,4.078-10.28,6.701
				c-6.744,5.611-11.124,12.79-13.732,21.104c-0.649,2.068-1.194,4.168-1.725,6.271c-0.135,0.534-1.04,2.618-0.103,3.001
				c1.071,0.438,2.869-0.391,3.88-0.644c2.529-0.634,5.018-1.417,7.48-2.272c7.985-2.771,14.709-7.674,19.876-14.374
				c3.056-3.96,5.499-8.298,7.457-12.894C308.609,146.242,308.265,146.038,308.164,146.275z"/>
		</g>
	</g>
	<g>
		<path fill="#2F99BD" d="M308.337,146.375c-0.146-0.949-0.817-1.443-1.598-1.844c-2.292-1.09-4.005-2.759-5.058-5.083
			c-0.425-0.763-0.912-1.452-1.868-1.59c-1.527-2.013-1.525-2.009,0.868-3.195c0.743-0.368,1.471-0.768,2.207-1.153
			c0.58-0.261,0.939,0.06,1.323,0.446c2.667,2.687,5.345,5.363,8.032,8.03c0.386,0.383,0.709,0.743,0.44,1.324
			c-0.386,0.734-0.783,1.463-1.156,2.205C310.326,147.902,310.33,147.904,308.337,146.375z"/>
		<g>
			<path d="M308.53,146.322c-0.256-0.974-0.822-1.483-1.689-1.964c-1.351-0.748-2.532-1.536-3.559-2.71
				c-0.898-1.029-1.292-2.357-2.192-3.372c-0.566-0.638-3.283-1.738-1.462-2.847c0.543-0.331,1.144-0.588,1.71-0.876
				c0.368-0.191,0.735-0.385,1.102-0.581c1.226-0.65,1.869,0.364,2.521,1.019c1.483,1.492,2.97,2.979,4.459,4.464
				c0.596,0.595,1.192,1.188,1.789,1.781c0.299,0.296,0.597,0.593,0.896,0.889c0.809,0.803-0.098,2.035-0.465,2.732
				c-0.347,0.659-0.656,1.336-1.049,1.971c-0.553,0.896-1.743-0.315-2.152-0.627c-0.205-0.157-0.404,0.191-0.202,0.346
				c0.477,0.364,1.676,1.577,2.365,0.882c0.501-0.504,0.784-1.19,1.102-1.816c0.384-0.761,1.283-1.814,1.283-2.704
				c0-0.639-0.648-1.117-1.047-1.512c-1.046-1.037-2.089-2.077-3.13-3.117c-1.042-1.04-2.082-2.083-3.121-3.125
				c-0.494-0.497-1.267-1.695-2.01-1.86c-0.779-0.173-1.304,0.258-1.99,0.623c-0.906,0.481-1.904,0.868-2.734,1.478
				c-0.728,0.535-0.235,1.284,0.161,1.856c0.629,0.907,1.56,1.036,2.175,1.922c0.533,0.77,0.836,1.659,1.43,2.403
				c0.568,0.717,1.197,1.391,1.941,1.931c1.195,0.867,3.069,1.344,3.481,2.918C308.209,146.679,308.596,146.572,308.53,146.322z"/>
		</g>
	</g>
	<g>
		<path fill="#C62A2C" d="M364.062,94.204c0.396,5.832-1.429,10.656-6.396,14.039c-3.143,2.141-6.674,2.556-10.354,2.279
			c-5.25-1.449-9.191-4.382-10.977-9.73c-2.546-7.635,1.858-15.978,9.569-18.162c7.876-2.23,15.953,2.52,17.806,10.465
			C363.799,93.472,363.944,93.835,364.062,94.204z"/>
		<g>
			<path d="M363.863,94.204c0.207,3.59-0.391,7.062-2.415,10.09c-2.447,3.659-6.562,5.719-10.87,6.062
				c-7.759,0.616-14.312-5.834-14.752-13.408c-0.435-7.446,5.44-13.823,12.704-14.607c3.359-0.363,6.729,0.657,9.484,2.561
				c1.476,1.018,2.691,2.38,3.67,3.871c1.119,1.703,1.539,3.592,2.186,5.485c0.084,0.243,0.471,0.139,0.387-0.106
				c-0.564-1.656-0.958-3.289-1.788-4.845c-0.805-1.509-1.944-2.825-3.224-3.949c-2.369-2.084-5.436-3.22-8.556-3.453
				c-6.734-0.501-12.76,4.089-14.7,10.41c-1.966,6.402,1.106,13.332,6.801,16.611c1.394,0.803,2.93,1.35,4.47,1.791
				c1.764,0.504,4.238,0.031,6.003-0.344c3.601-0.765,6.753-3.216,8.773-6.236c1.946-2.91,2.425-6.509,2.228-9.932
				C364.249,93.947,363.849,93.946,363.863,94.204z"/>
		</g>
	</g>
	<g>
		<path fill="#333333" d="M301.682,139.448c1.688,1.694,3.373,3.388,5.059,5.083c-0.779,3.144-2.73,5.665-4.566,8.192
			c-5.251,7.227-12.611,11.316-21.032,13.765c-1.306,0.38-1.886,0.612-1.404-1.224c2.552-9.712,7.577-17.602,16.336-22.862
			C297.889,141.311,299.511,139.862,301.682,139.448z"/>
		<g>
			<path d="M301.54,139.589c1.265,1.271,2.528,2.542,3.794,3.812c0.913,0.917,1.185,1.348,0.731,2.599
				c-0.352,0.968-0.862,1.875-1.386,2.756c-1.715,2.89-3.875,5.638-6.255,8.003c-4.642,4.612-10.658,7.506-16.854,9.392
				c-0.503,0.153-1.026,0.341-1.552,0.399c-0.522,0.058,0.242-2.438,0.297-2.63c0.436-1.516,0.966-3.002,1.555-4.465
				c1.133-2.813,2.625-5.474,4.404-7.928c1.872-2.583,4.166-4.846,6.69-6.787c1.286-0.989,2.675-1.81,4.034-2.69
				c1.522-0.986,2.933-1.995,4.733-2.41c0.252-0.058,0.146-0.444-0.105-0.386c-1.493,0.344-2.744,1.066-4.015,1.906
				c-1.49,0.985-3.022,1.899-4.469,2.949c-2.51,1.823-4.783,4.03-6.669,6.492c-1.953,2.549-3.528,5.32-4.792,8.27
				c-0.626,1.461-1.148,2.964-1.616,4.482c-0.209,0.676-1.124,2.583-0.625,3.286c0.283,0.399,0.671,0.32,1.112,0.222
				c1.667-0.369,3.316-1.008,4.91-1.608c3.212-1.208,6.274-2.795,9.09-4.757c2.715-1.892,5.101-4.216,7.144-6.812
				c2.156-2.742,4.309-5.692,5.232-9.1c0.02-0.069-0.001-0.144-0.052-0.195c-1.687-1.695-3.372-3.389-5.058-5.083
				C301.643,139.123,301.357,139.406,301.54,139.589z"/>
		</g>
	</g>
	<g>
		<path fill="#2F99BD" d="M349.925,106.363c-5.648,0.024-10.022-4.272-10.08-9.902c-0.059-5.72,4.336-10.156,10.045-10.142
			c5.642,0.014,9.979,4.355,9.995,10.005C359.901,101.944,355.541,106.339,349.925,106.363z"/>
		<g>
			<path d="M349.925,106.163c-5.499-0.087-9.713-4.195-9.88-9.702c-0.169-5.577,4.433-9.844,9.845-9.942
				c5.512-0.099,9.671,4.468,9.794,9.805C359.812,101.814,355.248,106.03,349.925,106.163c-0.259,0.006-0.259,0.407,0,0.4
				c5.713-0.142,10.062-4.526,10.159-10.239c0.101-5.729-4.639-10.079-10.195-10.206c-5.804-0.132-10.187,4.723-10.245,10.343
				c-0.059,5.729,4.735,10.014,10.28,10.102C350.184,106.567,350.183,106.167,349.925,106.163z"/>
		</g>
	</g>
</g>
<g>
	<g>
		<path fill="#2F99BD" d="M77.21,211.139h13.43v5.866H69.496V185.37h7.715L77.21,211.139L77.21,211.139z"/>
		<path d="M90.96,217.325H69.175v-32.276h8.355v25.77h13.43V217.325z M69.816,216.686h20.503v-5.227H76.89V185.69h-7.074V216.686z"
			/>
	</g>
	<g>
		<path fill="#2F99BD" d="M113.322,217.005h-7.693V185.37h7.693V217.005z"/>
		<path d="M113.642,217.325h-8.333v-32.276h8.333V217.325z M105.949,216.686h7.052V185.69h-7.052V216.686z"/>
	</g>
	<g>
		<path fill="#2F99BD" d="M150.048,204.402h-12.44v12.603h-7.714v-31.636h21.407v5.888h-13.693v7.279h12.44V204.402z"/>
		<path d="M137.929,217.325h-8.355v-32.276h22.048v6.529h-13.693v6.638h12.44v6.507h-12.44V217.325L137.929,217.325z
			 M130.214,216.686h7.074v-12.604h12.44v-5.226h-12.44v-7.919h13.693v-5.248h-20.767V216.686z"/>
	</g>
	<g>
		<path fill="#2F99BD" d="M185.567,203.577h-12.132v7.562h14.33v5.866H165.72V185.37h22.089v5.888h-14.374v6.67h12.132V203.577
			L185.567,203.577z"/>
		<path d="M188.085,217.325h-22.686v-32.276h22.729v6.529h-14.374v6.03h12.132v6.291h-12.132v6.92h14.33L188.085,217.325
			L188.085,217.325z M166.04,216.686h21.404v-5.227h-14.33v-8.202h12.132v-5.008h-12.132v-7.311h14.374v-5.248H166.04V216.686z"/>
	</g>
	<g>
		<path fill="#2F99BD" d="M232.25,211.139h13.429v5.866h-21.144V185.37h7.715V211.139L232.25,211.139z"/>
		<path d="M246,217.325h-21.785v-32.276h8.355v25.77H246V217.325z M224.855,216.686h20.503v-5.227H231.93V185.69h-7.074
			L224.855,216.686L224.855,216.686z"/>
	</g>
	<g>
		<path fill="#2F99BD" d="M278.318,211.096h-10.572l-1.846,5.909h-8.242l11.737-31.636h7.253l11.825,31.636h-8.286L278.318,211.096z
			 M269.592,205.207h6.88l-3.451-10.973L269.592,205.207z"/>
		<path d="M288.934,217.325h-8.982l-1.868-5.91h-10.102l-1.846,5.91h-8.939l11.975-32.276h7.698l0.078,0.208L288.934,217.325z
			 M280.421,216.686h7.589l-11.585-30.996h-6.808l-11.499,30.996h7.545l1.846-5.91h11.043L280.421,216.686z M276.909,205.527h-7.753
			l3.864-12.364L276.909,205.527z M270.028,204.887h6.007l-3.013-9.581L270.028,204.887z"/>
	</g>
	<g>
		<path fill="#2F99BD" d="M327.111,185.37v20.707c0,2.346-0.505,4.378-1.518,6.095c-1.011,1.717-2.462,3.023-4.352,3.921
			c-1.891,0.898-4.125,1.349-6.704,1.349c-3.897,0-6.967-1-9.208-3c-2.242-1.998-3.387-4.734-3.43-8.213V185.37h7.759v21.011
			c0.088,3.462,1.715,5.192,4.88,5.192c1.597,0,2.806-0.435,3.626-1.304s1.231-2.281,1.231-4.237V185.37H327.111z"/>
		<path d="M314.539,217.76c-3.96,0-7.13-1.035-9.421-3.08c-2.304-2.052-3.492-4.894-3.536-8.447V185.05h8.398v21.332
			c0.083,3.275,1.574,4.872,4.56,4.872c1.498,0,2.64-0.404,3.393-1.203c0.761-0.805,1.146-2.156,1.146-4.018V185.05h8.354v21.027
			c0,2.396-0.524,4.5-1.561,6.258c-1.04,1.765-2.551,3.126-4.49,4.047C319.457,217.296,317.154,217.76,314.539,217.76z
			 M302.223,185.69v20.539c0.043,3.361,1.159,6.047,3.321,7.974c2.171,1.937,5.197,2.918,8.995,2.918
			c2.52,0,4.729-0.443,6.566-1.315c1.821-0.867,3.239-2.144,4.213-3.796c0.978-1.657,1.473-3.653,1.473-5.932V185.69h-7.073v20.342
			c0,2.03-0.442,3.53-1.317,4.457c-0.881,0.932-2.179,1.403-3.859,1.403c-3.358,0-5.107-1.852-5.2-5.504V185.69H302.223z"/>
	</g>
	<g>
		<path fill="#2F99BD" d="M369.86,217.005h-7.67l-11.343-19.685v19.685h-7.714V185.37h7.714l11.319,19.685V185.37h7.692
			L369.86,217.005L369.86,217.005z"/>
		<path d="M370.181,217.325h-8.176l-0.092-0.16l-10.744-18.647v18.807h-8.354v-32.276h8.22l0.093,0.161l10.721,18.646V185.05h8.333
			L370.181,217.325L370.181,217.325z M362.376,216.686h7.164V185.69h-7.052v20.565l-11.825-20.565h-7.208v30.996h7.073v-20.563
			L362.376,216.686z"/>
	</g>
	<g>
		<path fill="#2F99BD" d="M411.841,206.293c-0.103,2.202-0.703,4.146-1.803,5.834c-1.099,1.688-2.641,2.995-4.626,3.922
			c-1.985,0.928-4.254,1.391-6.803,1.391c-4.206,0-7.519-1.354-9.936-4.062c-2.418-2.709-3.626-6.532-3.626-11.474v-1.564
			c0-3.1,0.545-5.812,1.637-8.137c1.092-2.325,2.663-4.121,4.716-5.389c2.051-1.267,4.425-1.901,7.12-1.901
			c3.884,0,7.005,1.01,9.363,3.031s3.699,4.806,4.021,8.354h-7.692c-0.059-1.926-0.549-3.31-1.473-4.15
			c-0.923-0.84-2.33-1.26-4.221-1.26c-1.92,0-3.326,0.71-4.22,2.129c-0.895,1.419-1.363,3.687-1.407,6.8v2.238
			c0,3.377,0.43,5.787,1.286,7.235c0.857,1.449,2.333,2.173,4.43,2.173c1.771,0,3.128-0.413,4.065-1.238
			c0.938-0.826,1.437-2.137,1.494-3.933L411.841,206.293L411.841,206.293z"/>
		<path d="M398.609,217.76c-4.281,0-7.704-1.402-10.175-4.169c-2.46-2.757-3.707-6.688-3.707-11.687v-1.565
			c0-3.134,0.562-5.917,1.667-8.273c1.112-2.371,2.739-4.229,4.838-5.525c2.093-1.293,4.545-1.949,7.289-1.949
			c3.942,0,7.163,1.045,9.57,3.107c2.414,2.068,3.805,4.951,4.133,8.569l0.031,0.349h-8.354l-0.011-0.311
			c-0.056-1.828-0.516-3.147-1.367-3.922c-0.857-0.781-2.204-1.177-4.005-1.177c-1.818,0-3.109,0.647-3.947,1.979
			c-0.858,1.362-1.315,3.594-1.358,6.634v2.233c0,3.303,0.418,5.682,1.241,7.072c0.803,1.355,2.161,2.016,4.153,2.016
			c1.684,0,2.979-0.39,3.854-1.158c0.864-0.762,1.33-2.008,1.386-3.703l0.011-0.309h8.316l-0.016,0.334
			c-0.104,2.25-0.729,4.268-1.854,5.994c-1.127,1.731-2.729,3.09-4.759,4.037C403.528,217.282,401.193,217.76,398.609,217.76z
			 M398.521,185.233c-2.623,0-4.964,0.624-6.952,1.853c-1.99,1.229-3.535,2.996-4.595,5.252c-1.064,2.27-1.605,4.961-1.605,8v1.564
			c0,4.837,1.191,8.625,3.545,11.26c2.343,2.625,5.604,3.956,9.695,3.956c2.489,0,4.732-0.458,6.667-1.36
			c1.921-0.896,3.433-2.178,4.493-3.807c1.007-1.545,1.589-3.34,1.73-5.34h-7.025c-0.107,1.725-0.642,3.02-1.588,3.854
			c-0.995,0.875-2.435,1.318-4.277,1.318c-2.207,0-3.79-0.784-4.704-2.33c-0.896-1.514-1.331-3.934-1.331-7.398v-2.238
			c0.045-3.165,0.534-5.508,1.456-6.971c0.951-1.512,2.462-2.279,4.491-2.279c1.964,0,3.455,0.452,4.436,1.344
			c0.934,0.849,1.459,2.216,1.562,4.066h7.031c-0.368-3.282-1.671-5.902-3.876-7.791
			C405.388,186.228,402.308,185.233,398.521,185.233z"/>
	</g>
	<g>
		<path fill="#2F99BD" d="M453.447,217.005h-7.671v-13.21h-11.363v13.21h-7.715V185.37h7.715v12.559h11.363V185.37h7.671V217.005z"
			/>
		<path d="M453.768,217.325h-8.312v-13.21h-10.723v13.21h-8.355v-32.276h8.355v12.559h10.723v-12.559h8.312V217.325z
			 M446.097,216.686h7.03V185.69h-7.03v12.559h-12.004V185.69h-7.074v30.996h7.074v-13.211h12.004V216.686z"/>
	</g>
	<g>
		<path fill="#2F99BD" d="M489.383,203.577h-12.132v7.562h14.33v5.866h-22.045V185.37h22.089v5.888h-14.374v6.67h12.132V203.577
			L489.383,203.577z"/>
		<path d="M491.901,217.325h-22.687v-32.276h22.729v6.529H477.57v6.03h12.132v6.291H477.57v6.92h14.33L491.901,217.325
			L491.901,217.325z M469.856,216.686h21.403v-5.227h-14.33v-8.202h12.132v-5.008H476.93v-7.311h14.374v-5.248h-21.447V216.686z"/>
	</g>
	<g>
		<path fill="#2F99BD" d="M517.823,205.814h-4.177v11.189h-7.714V185.37h12.595c3.795,0,6.762,0.832,8.9,2.496
			c2.141,1.665,3.209,4.016,3.209,7.055c0,2.199-0.45,4.022-1.352,5.469c-0.902,1.447-2.312,2.619-4.231,3.516l6.683,12.773v0.325
			h-8.265L517.823,205.814z M513.646,199.949h4.881c1.465,0,2.566-0.38,3.308-1.143c0.739-0.763,1.109-1.826,1.109-3.192
			c0-1.364-0.373-2.437-1.121-3.212c-0.747-0.777-1.847-1.166-3.296-1.166h-4.881V199.949z"/>
		<path d="M532.057,217.325h-8.78l-5.649-11.189h-3.658v11.189h-8.354v-32.276h12.914c3.85,0,6.91,0.862,9.098,2.563
			c2.212,1.72,3.333,4.179,3.333,7.308c0,2.25-0.471,4.147-1.399,5.639c-0.883,1.416-2.248,2.59-4.065,3.491l6.563,12.63v0.646
			H532.057z M523.67,216.686h7.708l-6.763-12.929l0.304-0.142c1.854-0.867,3.231-2.01,4.095-3.396
			c0.865-1.388,1.305-3.171,1.305-5.3c0-2.92-1.038-5.209-3.086-6.802c-2.071-1.611-5-2.428-8.704-2.428h-12.273v30.995h7.073
			v-11.188h4.693L523.67,216.686z M518.527,200.269h-5.2v-9.354h5.2c1.533,0,2.721,0.425,3.526,1.264
			c0.804,0.834,1.21,1.99,1.21,3.435c0,1.444-0.402,2.593-1.198,3.415C521.267,199.852,520.076,200.269,518.527,200.269z
			 M513.968,199.628h4.561c1.369,0,2.403-0.352,3.078-1.046c0.676-0.698,1.019-1.697,1.019-2.969c0-1.273-0.348-2.279-1.031-2.99
			c-0.682-0.708-1.713-1.067-3.064-1.067h-4.561L513.968,199.628L513.968,199.628z"/>
	</g>
</g>
<g>
	<path d="M160.838,248.766h-1.566v-8.188h-10.509v8.188h-1.554v-17.08h1.554v7.672h10.509v-7.672h1.566V248.766z"/>
	<path d="M175.667,240.576h-8.602v6.969h9.89v1.221h-11.444v-17.08h11.381v1.221h-9.827v6.451h8.602V240.576L175.667,240.576z"/>
	<path d="M181.793,247.545h9.081v1.221h-10.648v-17.08h1.566L181.793,247.545L181.793,247.545z"/>
	<path d="M195.409,241.809v6.957h-1.554v-17.08h6.265c1.911,0,3.421,0.453,4.528,1.36s1.661,2.154,1.661,3.742
		c0,1.604-0.532,2.841-1.597,3.713s-2.609,1.308-4.629,1.308H195.409z M195.409,240.589h4.711c1.507,0,2.657-0.333,3.448-0.998
		c0.792-0.666,1.188-1.595,1.188-2.784c0-1.183-0.394-2.125-1.181-2.826c-0.788-0.701-1.905-1.059-3.354-1.073h-4.812V240.589z"/>
	<path d="M211.678,248.766h-1.554v-17.08h1.554V248.766z"/>
	<path d="M230.358,248.766h-1.554l-10.572-14.617v14.617h-1.566v-17.08h1.566l10.584,14.629v-14.629h1.541L230.358,248.766
		L230.358,248.766z"/>
	<path d="M248.307,246.734c-0.539,0.713-1.383,1.268-2.532,1.666c-1.15,0.398-2.436,0.599-3.859,0.599
		c-1.44,0-2.72-0.319-3.84-0.962c-1.12-0.641-1.987-1.549-2.602-2.723c-0.615-1.172-0.927-2.518-0.935-4.035v-2.157
		c0-2.369,0.645-4.24,1.933-5.613c1.289-1.372,3.019-2.059,5.191-2.059c1.895,0,3.418,0.448,4.572,1.343
		c1.154,0.896,1.84,2.13,2.059,3.701h-1.554c-0.228-1.256-0.777-2.206-1.648-2.854c-0.872-0.646-2.01-0.971-3.417-0.971
		c-1.718,0-3.078,0.566-4.08,1.702c-1.002,1.135-1.503,2.735-1.503,4.802v2.02c0,1.299,0.238,2.447,0.713,3.445
		c0.476,0.997,1.158,1.771,2.046,2.318s1.909,0.82,3.063,0.82c1.339,0,2.488-0.194,3.448-0.586c0.623-0.258,1.086-0.56,1.39-0.902
		v-4.411h-4.939v-1.221h6.492L248.307,246.734L248.307,246.734z"/>
	<path d="M269.413,244.564c0-0.945-0.358-1.694-1.073-2.246c-0.716-0.551-2.025-1.074-3.929-1.571
		c-1.903-0.497-3.292-1.038-4.168-1.624c-1.246-0.829-1.869-1.917-1.869-3.262c0-1.307,0.579-2.367,1.737-3.186
		c1.157-0.816,2.638-1.226,4.439-1.226c1.221,0,2.313,0.219,3.278,0.655c0.964,0.438,1.711,1.05,2.242,1.83
		c0.531,0.782,0.796,1.654,0.796,2.615H269.3c0-1.168-0.429-2.107-1.288-2.816c-0.859-0.711-2.013-1.064-3.461-1.064
		c-1.406,0-2.526,0.292-3.359,0.875c-0.833,0.584-1.25,1.346-1.25,2.285c0,0.869,0.375,1.578,1.124,2.127s1.949,1.032,3.6,1.451
		s2.901,0.854,3.751,1.303s1.49,0.987,1.92,1.612c0.429,0.626,0.644,1.364,0.644,2.217c0,1.347-0.579,2.425-1.737,3.237
		c-1.158,0.813-2.684,1.221-4.579,1.221c-1.296,0-2.486-0.215-3.568-0.645c-1.082-0.432-1.903-1.032-2.463-1.808
		c-0.561-0.774-0.84-1.662-0.84-2.663h1.554c0,1.204,0.484,2.154,1.453,2.852c0.968,0.695,2.256,1.043,3.865,1.043
		c1.432,0,2.582-0.293,3.449-0.879C268.979,246.312,269.413,245.535,269.413,244.564z"/>
	<path d="M286.806,232.904h-6.303v15.859h-1.554v-15.859h-6.29v-1.219h14.146L286.806,232.904L286.806,232.904z"/>
	<path d="M302.443,231.686v11.66c-0.01,1.149-0.282,2.15-0.821,3.004c-0.539,0.853-1.299,1.506-2.28,1.965
		c-0.981,0.457-2.107,0.686-3.379,0.686c-1.937,0-3.488-0.49-4.654-1.473c-1.166-0.981-1.771-2.34-1.812-4.075v-11.767h1.541v11.555
		c0,1.439,0.442,2.556,1.326,3.35c0.884,0.794,2.084,1.189,3.6,1.189s2.714-0.397,3.594-1.195c0.879-0.798,1.32-1.908,1.32-3.332
		v-11.566H302.443L302.443,231.686z"/>
	<path d="M306.775,248.766v-17.08h5.141c1.508,0,2.858,0.318,4.054,0.955c1.196,0.639,2.129,1.551,2.798,2.74
		c0.67,1.188,1.006,2.541,1.006,4.059v1.572c0,1.523-0.333,2.877-0.998,4.059c-0.665,1.181-1.603,2.092-2.812,2.732
		s-2.596,0.963-4.162,0.963H306.775L306.775,248.766z M308.329,232.904v14.641h3.486c1.937,0,3.489-0.597,4.659-1.79
		c1.172-1.194,1.757-2.808,1.757-4.843v-1.503c0-1.964-0.577-3.537-1.73-4.72s-2.673-1.776-4.56-1.785H308.329L308.329,232.904z"/>
	<path d="M333.868,240.576h-8.603v6.969h9.891v1.221h-11.443v-17.08h11.38v1.221h-9.826v6.451h8.603L333.868,240.576
		L333.868,240.576z"/>
	<path d="M352.12,248.766h-1.554l-10.572-14.617v14.617h-1.566v-17.08h1.566l10.585,14.629v-14.629h1.541V248.766z"/>
	<path d="M368.906,232.904h-6.304v15.859h-1.554v-15.859h-6.29v-1.219h14.146L368.906,232.904L368.906,232.904z"/>
	<path d="M382.08,244.564c0-0.945-0.357-1.694-1.073-2.246c-0.716-0.551-2.024-1.074-3.929-1.571
		c-1.902-0.497-3.292-1.038-4.168-1.624c-1.246-0.829-1.869-1.917-1.869-3.262c0-1.307,0.579-2.367,1.736-3.186
		c1.157-0.816,2.638-1.226,4.439-1.226c1.222,0,2.313,0.219,3.277,0.655c0.965,0.438,1.712,1.05,2.242,1.83
		c0.529,0.782,0.796,1.654,0.796,2.615h-1.566c0-1.168-0.43-2.107-1.289-2.816c-0.857-0.711-2.012-1.064-3.461-1.064
		c-1.406,0-2.524,0.292-3.358,0.875c-0.834,0.584-1.25,1.346-1.25,2.285c0,0.869,0.375,1.578,1.124,2.127s1.948,1.032,3.6,1.451
		c1.65,0.418,2.901,0.854,3.751,1.303c0.851,0.449,1.491,0.987,1.92,1.612c0.43,0.626,0.646,1.364,0.646,2.217
		c0,1.347-0.579,2.425-1.736,3.237c-1.158,0.813-2.686,1.221-4.579,1.221c-1.297,0-2.486-0.215-3.568-0.645
		c-1.082-0.432-1.902-1.032-2.463-1.808c-0.56-0.774-0.84-1.662-0.84-2.663h1.554c0,1.204,0.484,2.154,1.452,2.852
		c0.969,0.695,2.257,1.043,3.865,1.043c1.432,0,2.581-0.293,3.448-0.879C381.646,246.312,382.08,245.535,382.08,244.564z"/>
	<path d="M394.838,241.809v6.957h-1.554v-17.08h6.265c1.912,0,3.421,0.453,4.528,1.36c1.106,0.907,1.661,2.154,1.661,3.742
		c0,1.604-0.532,2.841-1.599,3.713c-1.065,0.872-2.607,1.308-4.629,1.308H394.838z M394.838,240.589h4.711
		c1.508,0,2.657-0.333,3.448-0.998c0.792-0.666,1.188-1.595,1.188-2.784c0-1.183-0.394-2.125-1.181-2.826
		c-0.788-0.701-1.905-1.059-3.354-1.073h-4.812V240.589L394.838,240.589z"/>
	<path d="M410.777,247.545h9.082v1.221h-10.647v-17.08h1.565V247.545L410.777,247.545z"/>
	<path d="M433.008,243.968h-8.35l-1.895,4.798h-1.63l6.96-17.08h1.479l6.96,17.08h-1.617L433.008,243.968z M425.139,242.747h7.377
		l-3.688-9.302L425.139,242.747z"/>
	<path d="M452.927,248.766h-1.553l-10.572-14.617v14.617h-1.565v-17.08h1.565l10.584,14.629v-14.629h1.541V248.766L452.927,248.766z
		"/>
</g>
<g>
	<path d="M160.742,255.98h-6.296v15.859h-1.553V255.98h-6.283v-1.221h14.132V255.98L160.742,255.98z"/>
	<path d="M177.322,271.841h-1.565v-8.188h-10.498v8.188h-1.552v-17.08h1.552v7.673h10.498v-7.672h1.565V271.841z"/>
	<path d="M192.135,263.652h-8.593v6.968h9.879v1.221H181.99v-17.08h11.369v1.22h-9.817v6.453h8.593V263.652L192.135,263.652z"/>
	<path d="M198.583,271.841h-1.552v-17.08h1.552V271.841z"/>
	<path d="M210.43,264.721h-5.337v7.12h-1.564v-17.08h5.968c1.96,0,3.491,0.441,4.593,1.324s1.653,2.116,1.653,3.702
		c0,1.094-0.345,2.059-1.035,2.895c-0.689,0.836-1.615,1.413-2.776,1.733l4.593,7.272v0.152h-1.652L210.43,264.721z M205.093,263.5
		h4.757c1.303,0,2.351-0.346,3.142-1.034s1.186-1.582,1.186-2.679c0-1.206-0.412-2.143-1.236-2.809
		c-0.825-0.666-1.981-0.998-3.47-0.998h-4.378v7.52H205.093z"/>
	<path d="M236.373,263.852h-8.568v7.989h-1.552v-17.08h11.381v1.22h-9.829v6.651h8.567L236.373,263.852L236.373,263.852z"/>
	<path d="M242.681,271.841h-1.552v-17.08h1.552V271.841z"/>
	<path d="M261.343,271.841h-1.552l-10.561-14.616v14.616h-1.565v-17.08h1.565l10.573,14.628v-14.628h1.54V271.841z"/>
	<path d="M276.156,267.043h-8.34l-1.893,4.798h-1.628l6.953-17.08h1.476l6.953,17.08h-1.615L276.156,267.043z M268.295,265.822
		h7.369l-3.685-9.303L268.295,265.822z"/>
	<path d="M296.054,271.841h-1.552l-10.561-14.616v14.616h-1.564v-17.08h1.564l10.574,14.628v-14.628h1.539V271.841z"/>
	<path d="M313.731,266.516c-0.21,1.799-0.901,3.174-2.075,4.129s-2.736,1.432-4.688,1.432c-1.362,0-2.567-0.316-3.614-0.95
		c-1.049-0.634-1.856-1.53-2.43-2.692c-0.573-1.16-0.862-2.488-0.871-3.981v-2.218c0-1.517,0.286-2.861,0.858-4.034
		c0.571-1.173,1.396-2.078,2.467-2.716c1.072-0.639,2.308-0.957,3.703-0.957c1.969,0,3.522,0.492,4.662,1.479
		s1.803,2.352,1.987,4.094h-1.564c-0.387-2.9-2.081-4.352-5.085-4.352c-1.665,0-2.992,0.579-3.979,1.736
		c-0.988,1.158-1.482,2.76-1.482,4.803v2.09c0,1.973,0.48,3.545,1.443,4.721c0.963,1.174,2.266,1.76,3.905,1.76
		c1.623,0,2.849-0.361,3.672-1.084c0.824-0.725,1.333-1.811,1.526-3.256h1.565V266.516z"/>
	<path d="M319.396,271.841h-1.553v-17.08h1.553V271.841z"/>
	<path d="M334.525,267.043h-8.341l-1.893,4.798h-1.628l6.952-17.08h1.477l6.952,17.08h-1.615L334.525,267.043z M326.665,265.822
		h7.368l-3.686-9.303L326.665,265.822z"/>
	<path d="M342.311,270.62h9.072v1.221h-10.637v-17.08h1.564V270.62L342.311,270.62z"/>
	<path d="M370.764,263.852h-8.566v7.989h-1.553v-17.08h11.382v1.22h-9.829v6.651h8.566V263.852z"/>
	<path d="M387.836,254.761v11.66c-0.009,1.149-0.282,2.149-0.82,3.003c-0.539,0.854-1.298,1.508-2.277,1.965
		c-0.979,0.459-2.104,0.688-3.375,0.688c-1.936,0-3.484-0.49-4.649-1.473c-1.165-0.98-1.769-2.34-1.811-4.076v-11.767h1.539v11.556
		c0,1.438,0.441,2.556,1.324,3.349c0.885,0.794,2.082,1.19,3.598,1.19c1.514,0,2.71-0.398,3.59-1.196
		c0.879-0.798,1.317-1.908,1.317-3.331v-11.566L387.836,254.761L387.836,254.761z"/>
	<path d="M404.63,255.98h-6.297v15.859h-1.552V255.98h-6.284v-1.221h14.133V255.98z"/>
	<path d="M420.251,254.761v11.66c-0.009,1.149-0.282,2.149-0.82,3.003c-0.539,0.854-1.298,1.508-2.277,1.965
		c-0.979,0.459-2.104,0.688-3.374,0.688c-1.937,0-3.485-0.49-4.65-1.473c-1.165-0.98-1.769-2.34-1.811-4.076v-11.767h1.54v11.556
		c0,1.438,0.44,2.556,1.323,3.349c0.885,0.794,2.082,1.19,3.598,1.19c1.514,0,2.711-0.398,3.59-1.196s1.317-1.908,1.317-3.331
		v-11.566L420.251,254.761L420.251,254.761z"/>
	<path d="M431.442,264.721h-5.337v7.12h-1.564v-17.08h5.968c1.96,0,3.491,0.441,4.593,1.324c1.103,0.883,1.652,2.116,1.652,3.702
		c0,1.094-0.345,2.059-1.034,2.895c-0.688,0.836-1.614,1.413-2.775,1.733l4.593,7.272v0.152h-1.652L431.442,264.721z M426.105,263.5
		h4.757c1.304,0,2.351-0.346,3.142-1.034s1.188-1.582,1.188-2.679c0-1.206-0.412-2.143-1.236-2.809s-1.981-0.998-3.471-0.998h-4.378
		L426.105,263.5L426.105,263.5z"/>
	<path d="M451.126,263.652h-8.593v6.968h9.88v1.221h-11.432v-17.08h11.367v1.22h-9.815v6.453h8.593V263.652L451.126,263.652z"/>
</g>
</svg>
